<?xml version="1.0" encoding="UTF-8" standalone="no"?>
<!-- Created with Inkscape (http://www.inkscape.org/) -->

<svg
   width="300"
   height="265"
   viewBox="0 0 79.375 70.114585"
   version="1.1"
   id="svg1"
   xml:space="preserve"
   inkscape:version="1.3.2 (091e20e, 2023-11-25, custom)"
   sodipodi:docname="logo-inkscape.svg"
   inkscape:export-filename="logo.png"
   inkscape:export-xdpi="228.571"
   inkscape:export-ydpi="228.571"
   xmlns:inkscape="http://www.inkscape.org/namespaces/inkscape"
   xmlns:sodipodi="http://sodipodi.sourceforge.net/DTD/sodipodi-0.dtd"
   xmlns="http://www.w3.org/2000/svg"
   xmlns:svg="http://www.w3.org/2000/svg"><sodipodi:namedview
     id="namedview1"
     pagecolor="#505050"
     bordercolor="#ffffff"
     borderopacity="1"
     inkscape:showpageshadow="0"
     inkscape:pageopacity="0"
     inkscape:pagecheckerboard="1"
     inkscape:deskcolor="#505050"
     inkscape:document-units="mm"
     inkscape:zoom="2.0686841"
     inkscape:cx="130.03435"
     inkscape:cy="134.62664"
     inkscape:window-width="1920"
     inkscape:window-height="1017"
     inkscape:window-x="1912"
     inkscape:window-y="-8"
     inkscape:window-maximized="1"
     inkscape:current-layer="layer1" /><defs
     id="defs1" /><g
     inkscape:label="Layer 1"
     inkscape:groupmode="layer"
     id="layer1"><path
       d="m 17.923004,64.110099 c 0.401575,-0.881378 5.14286,-9.568013 10.536187,-19.303642 5.393328,-9.735638 9.96563,-18.116986 10.160694,-18.625272 0.308133,-0.803062 -1.134913,-0.924136 -11.01543,-0.924136 H 16.234464 l -5.654208,9.958202 c -3.1098089,5.476996 -5.6532566,10.23513 -5.6520988,10.573602 0.00123,0.338489 2.1449959,4.339175 4.7640834,8.89044 7.2694214,12.632213 6.9426684,12.257833 8.2307634,9.430806 z M 72.770967,42.573258 C 71.849195,40.971898 69.945605,37.730851 68.54071,35.370956 67.13585,33.011034 62.610142,25.21811 58.483636,18.053309 54.357111,10.888511 50.77437,4.8987948 50.522009,4.7428102 49.901206,4.3591424 28.397708,4.2372379 28.019684,4.6151498 27.855029,4.7798752 33.050236,14.040455 39.564691,25.194305 l 11.844372,20.279741 11.518899,0.0053 11.518881,0.0053 z"
       style="fill:#ffffff;fill-opacity:1;stroke-width:0.999992"
       id="path1-1" /></g></svg>
